G04 ================== begin FILE IDENTIFICATION RECORD ==================*
G04 Layout Name:  D:/BRIJESH/temp/555/layout/555_Timer_Board_V0.brd*
G04 Film Name:    SILKSCREEN_TOP*
G04 File Format:  Gerber RS274X*
G04 File Origin:  Cadence Allegro 22.1-P001*
G04 Origin Date:  Mon Aug 24 11:11:26 2026*
G04 *
G04 Layer:  REF DES/SILKSCREEN_TOP*
G04 Layer:  PACKAGE GEOMETRY/SILKSCREEN_TOP*
G04 Layer:  BOARD GEOMETRY/SILKSCREEN_TOP*
G04 *
G04 Offset:    (0.00 0.00)*
G04 Mirror:    No*
G04 Mode:      Positive*
G04 Rotation:  0*
G04 FullContactRelief:  No*
G04 UndefLineWidth:     0.15*
G04 ================== end FILE IDENTIFICATION RECORD ====================*
%FSLAX25Y25*MOMM*%
%IR0*IPPOS*OFA0.00000B0.00000*MIA0B0*SFA1.00000B1.00000*%
%ADD10C,.2*%
%ADD11C,.13*%
%ADD12C,.15*%
G75*
%LPD*%
G75*
G54D10*
G01X11000Y845000D02*
X841000D01*
Y15000D01*
X11000D01*
Y845000D01*
G01Y2995000D02*
X841000D01*
Y2165000D01*
X11000D01*
Y2995000D01*
G01X1140000Y1115000D02*
G03I-30000J0D01*
G01X1250000Y1286000D02*
Y1180000D01*
X970000D01*
Y1286000D01*
G01X1250000Y2074000D02*
Y2180000D01*
X970000D01*
Y2074000D01*
G01X1590000Y1990000D02*
X1330000D01*
Y1310000D01*
X1590000D01*
Y1990000D01*
G01X1460000Y1192000D02*
Y1310000D01*
G01Y2108000D02*
Y1990000D01*
G01X2170000Y2370000D02*
Y870000D01*
X1670000D01*
Y2370000D01*
X2170000D01*
G01X2080000Y800000D02*
X3580000D01*
Y300000D01*
X2080000D01*
Y800000D01*
G01X2177000Y1901000D02*
G03I-30500J0D01*
G01X2382000Y1040000D02*
X3018000D01*
G01X2382000Y2000000D02*
X3018000D01*
G01X3228000Y1453000D02*
Y1395000D01*
X3412000D01*
Y1453000D01*
G01Y1687000D02*
Y1745000D01*
X3228000D01*
Y1687000D01*
G01X3320000Y1395000D02*
Y1315000D01*
G01X3496000Y1273000D02*
X3784000D01*
G01X3496000Y1928000D02*
Y1273000D01*
G01X3320000Y1745000D02*
Y1825000D01*
G01X3784000Y1928000D02*
X3496000D01*
G01X4052000Y1845000D02*
G03X4328000I138000J-264645D01*
G01X3784000Y1273000D02*
Y1928000D01*
G01X4140000Y1195000D02*
Y1235000D01*
G01X4120000Y1215000D02*
X4160000D01*
G01X4052000Y1845000D02*
X4328000D01*
G01X4560000Y1136000D02*
Y1030000D01*
X4840000D01*
Y1136000D01*
G01X4730000Y2095000D02*
G03I-30000J0D01*
G01X4560000Y1924000D02*
Y2030000D01*
X4840000D01*
Y1924000D01*
G01X4801000Y845000D02*
X5631000D01*
Y15000D01*
X4801000D01*
Y845000D01*
G01X4791000Y2995000D02*
X5621000D01*
Y2165000D01*
X4791000D01*
Y2995000D01*
G54D11*
G01X2268000Y2176000D02*
Y2085000D01*
X2274000Y2066000D01*
X2287000Y2053000D01*
X2303000Y2049000D01*
X2320000Y2053000D01*
X2333000Y2066000D01*
X2339000Y2085000D01*
Y2176000D01*
G01X2433000Y2049000D02*
Y2176000D01*
X2414000Y2151000D01*
G01Y2049000D02*
X2453000D01*
G54D12*
G01X88000Y878000D02*
X91000Y871000D01*
X95000Y867000D01*
X100000Y865000D01*
X106000Y867000D01*
X110000Y871000D01*
X114000Y878000D01*
X115000Y886000D01*
Y929000D01*
G01X143000Y865000D02*
Y929000D01*
G01X172000D02*
Y865000D01*
G01Y897000D02*
X143000D01*
G01X222000Y865000D02*
Y929000D01*
X196000Y883000D01*
X231000D01*
G01X59000Y2093000D02*
X62000Y2086000D01*
X66000Y2082000D01*
X71000Y2080000D01*
X77000Y2082000D01*
X81000Y2086000D01*
X85000Y2093000D01*
X86000Y2101000D01*
Y2144000D01*
G01X114000Y2080000D02*
Y2144000D01*
G01X143000D02*
Y2080000D01*
G01Y2112000D02*
X114000D01*
G01X184000Y2080000D02*
Y2144000D01*
X176000Y2131000D01*
G01Y2080000D02*
X193000D01*
G01X935000Y1375000D02*
X947000Y1383000D01*
X956000Y1393000D01*
X960000Y1404000D01*
X956000Y1417000D01*
X947000Y1427000D01*
X935000Y1437000D01*
X918000Y1440000D01*
X833000D01*
G01X960000Y1537000D02*
X833000D01*
X858000Y1518000D01*
G01X960000D02*
Y1557000D01*
G01X1536000Y2335000D02*
X1409000D01*
Y2376000D01*
X1415000Y2389000D01*
X1424000Y2397000D01*
X1441000Y2400000D01*
X1458000Y2397000D01*
X1468000Y2387000D01*
X1475000Y2376000D01*
Y2335000D01*
G01Y2376000D02*
X1536000Y2400000D01*
G01Y2497000D02*
X1409000D01*
X1434000Y2478000D01*
G01X1536000D02*
Y2517000D01*
G01X1891000Y2549000D02*
X1881000Y2556000D01*
X1870000Y2560000D01*
X1857000D01*
X1843000Y2554000D01*
X1831000Y2543000D01*
X1823000Y2530000D01*
X1817000Y2509000D01*
X1815000Y2490000D01*
X1818000Y2471000D01*
X1823000Y2458000D01*
X1833000Y2446000D01*
X1844000Y2437000D01*
X1855000Y2433000D01*
X1867000D01*
X1878000Y2437000D01*
X1888000Y2444000D01*
X1896000Y2452000D01*
G01X1985000Y2433000D02*
Y2560000D01*
X1966000Y2535000D01*
G01Y2433000D02*
X2005000D01*
G01X3265000Y1058000D02*
X3392000D01*
Y1017000D01*
X3386000Y1004000D01*
X3377000Y996000D01*
X3360000Y993000D01*
X3343000Y996000D01*
X3333000Y1006000D01*
X3326000Y1017000D01*
Y1058000D01*
G01Y1017000D02*
X3265000Y993000D01*
G01X3371000Y926000D02*
X3384000Y917000D01*
X3390000Y905000D01*
X3392000Y892000D01*
X3388000Y876000D01*
X3377000Y865000D01*
X3364000Y862000D01*
X3352000Y863000D01*
X3341000Y870000D01*
X3320000Y902000D01*
X3305000Y917000D01*
X3284000Y926000D01*
X3265000Y929000D01*
Y862000D01*
G01X3683000Y437000D02*
X3673000Y444000D01*
X3662000Y448000D01*
X3649000D01*
X3635000Y442000D01*
X3623000Y431000D01*
X3615000Y418000D01*
X3609000Y397000D01*
X3607000Y378000D01*
X3610000Y359000D01*
X3615000Y346000D01*
X3625000Y334000D01*
X3636000Y325000D01*
X3647000Y321000D01*
X3659000D01*
X3670000Y325000D01*
X3680000Y332000D01*
X3688000Y340000D01*
G01X3747000Y427000D02*
X3756000Y440000D01*
X3768000Y446000D01*
X3781000Y448000D01*
X3797000Y444000D01*
X3808000Y433000D01*
X3811000Y420000D01*
X3810000Y408000D01*
X3803000Y397000D01*
X3771000Y376000D01*
X3756000Y361000D01*
X3747000Y340000D01*
X3744000Y321000D01*
X3811000D01*
G01X3777000Y1122000D02*
X3904000D01*
Y1081000D01*
X3898000Y1068000D01*
X3889000Y1060000D01*
X3872000Y1057000D01*
X3855000Y1060000D01*
X3845000Y1070000D01*
X3838000Y1081000D01*
Y1122000D01*
G01Y1081000D02*
X3777000Y1057000D01*
G01X3802000Y995000D02*
X3788000Y985000D01*
X3779000Y972000D01*
X3777000Y958000D01*
X3779000Y945000D01*
X3790000Y932000D01*
X3802000Y924000D01*
X3815000Y922000D01*
X3830000Y926000D01*
X3840000Y937000D01*
X3845000Y948000D01*
Y963000D01*
G01Y948000D02*
X3851000Y938000D01*
X3862000Y930000D01*
X3874000Y927000D01*
X3887000Y930000D01*
X3898000Y938000D01*
X3904000Y953000D01*
X3902000Y968000D01*
X3893000Y982000D01*
G01X4124000Y1921000D02*
Y2048000D01*
X4156000D01*
X4169000Y2042000D01*
X4179000Y2033000D01*
X4187000Y2020000D01*
X4193000Y2006000D01*
X4195000Y1984000D01*
X4193000Y1963000D01*
X4187000Y1949000D01*
X4179000Y1936000D01*
X4169000Y1927000D01*
X4156000Y1921000D01*
X4124000D01*
G01X4289000D02*
Y2048000D01*
X4270000Y2023000D01*
G01Y1921000D02*
X4309000D01*
G01X4878000Y878000D02*
X4881000Y871000D01*
X4885000Y867000D01*
X4890000Y865000D01*
X4896000Y867000D01*
X4900000Y871000D01*
X4904000Y878000D01*
X4905000Y886000D01*
Y929000D01*
G01X4933000Y865000D02*
Y929000D01*
G01X4962000D02*
Y865000D01*
G01Y897000D02*
X4933000D01*
G01X4988000Y878000D02*
X4993000Y870000D01*
X4998000Y866000D01*
X5004000Y865000D01*
X5010000Y866000D01*
X5015000Y871000D01*
X5019000Y878000D01*
Y884000D01*
X5018000Y892000D01*
X5013000Y897000D01*
X5008000Y899000D01*
X5002000D01*
G01X5008000D02*
X5012000Y902000D01*
X5016000Y908000D01*
X5017000Y914000D01*
X5016000Y920000D01*
X5012000Y926000D01*
X5006000Y929000D01*
X5000000Y928000D01*
X4994000Y924000D01*
G01X4890000Y1890000D02*
X4878000Y1882000D01*
X4869000Y1872000D01*
X4865000Y1861000D01*
X4869000Y1848000D01*
X4878000Y1838000D01*
X4890000Y1828000D01*
X4907000Y1825000D01*
X4992000D01*
G01X4971000Y1758000D02*
X4984000Y1749000D01*
X4990000Y1737000D01*
X4992000Y1724000D01*
X4988000Y1708000D01*
X4977000Y1697000D01*
X4964000Y1694000D01*
X4952000Y1695000D01*
X4941000Y1702000D01*
X4920000Y1734000D01*
X4905000Y1749000D01*
X4884000Y1758000D01*
X4865000Y1761000D01*
Y1694000D01*
G01X5499000Y2093000D02*
X5502000Y2086000D01*
X5506000Y2082000D01*
X5511000Y2080000D01*
X5517000Y2082000D01*
X5521000Y2086000D01*
X5525000Y2093000D01*
X5526000Y2101000D01*
Y2144000D01*
G01X5554000Y2080000D02*
Y2144000D01*
G01X5583000D02*
Y2080000D01*
G01Y2112000D02*
X5554000D01*
G01X5612000Y2133000D02*
X5616000Y2140000D01*
X5620000Y2143000D01*
X5626000Y2144000D01*
X5633000Y2142000D01*
X5637000Y2137000D01*
X5639000Y2130000D01*
X5638000Y2124000D01*
X5635000Y2118000D01*
X5622000Y2108000D01*
X5616000Y2100000D01*
X5612000Y2090000D01*
X5610000Y2080000D01*
X5639000D01*
M02*
